<svg width="30" height="30" viewBox="0 0 30 30" fill="none" xmlns="http://www.w3.org/2000/svg">
<g id="Frame" clip-path="url(#clip0_201_82)">
<path id="Vector" d="M30 15.0911C30 6.80679 23.2843 0.0910645 15 0.0910645C6.71572 0.0910645 0 6.80679 0 15.0911C0 22.578 5.48531 28.7835 12.6562 29.9088V19.427H8.84766V15.0911H12.6562V11.7864C12.6562 8.027 14.8956 5.95044 18.322 5.95044C19.9631 5.95044 21.6797 6.24341 21.6797 6.24341V9.93482H19.7882C17.9249 9.93482 17.3438 11.091 17.3438 12.2773V15.0911H21.5039L20.8389 19.427H17.3438V29.9088C24.5147 28.7835 30 22.578 30 15.0911Z" fill="white"/>
</g>
<defs>
<clipPath id="clip0_201_82">
<rect width="30" height="30" fill="white"/>
</clipPath>
</defs>
</svg>
