<svg width="30" height="30" viewBox="0 0 30 30" fill="none" xmlns="http://www.w3.org/2000/svg">
<g id="Group">
<path id="Vector" d="M15 0C10.9262 0 10.4154 0.0172674 8.81552 0.0902666C7.21894 0.163147 6.12854 0.416679 5.17437 0.78751C4.18799 1.17085 3.35147 1.68375 2.51758 2.51764C1.68369 3.35153 1.17079 4.18805 0.787451 5.17443C0.41662 6.12854 0.163087 7.21894 0.090207 8.81552C0.0172078 10.4154 0 10.9262 0 15C0 19.0738 0.0172078 19.5846 0.090207 21.1845C0.163087 22.7811 0.41662 23.8715 0.787451 24.8256C1.17079 25.812 1.68369 26.6485 2.51758 27.4824C3.35147 28.3163 4.18799 28.8292 5.17437 29.2125C6.12854 29.5833 7.21894 29.8369 8.81552 29.9097C10.4154 29.9827 10.9262 30 15 30C19.0738 30 19.5846 29.9827 21.1845 29.9097C22.7811 29.8369 23.8715 29.5833 24.8256 29.2125C25.812 28.8292 26.6485 28.3163 27.4824 27.4824C28.3163 26.6485 28.8292 25.812 29.2125 24.8256C29.5833 23.8715 29.8369 22.7811 29.9097 21.1845C29.9827 19.5846 30 19.0738 30 15C30 10.9262 29.9827 10.4154 29.9097 8.81552C29.8369 7.21894 29.5833 6.12854 29.2125 5.17443C28.8292 4.18805 28.3163 3.35153 27.4824 2.51764C26.6485 1.68375 25.812 1.17085 24.8256 0.78751C23.8715 0.416679 22.7811 0.163147 21.1845 0.0902666C19.5846 0.0172674 19.0738 0 15 0ZM15 2.70276C19.0052 2.70276 19.4796 2.718 21.0613 2.79017C22.5238 2.85691 23.318 3.10128 23.8466 3.30664C24.5467 3.57875 25.0464 3.90385 25.5713 4.42872C26.0962 4.95359 26.4213 5.45333 26.6934 6.15343C26.8988 6.68199 27.1431 7.47623 27.2098 8.93871C27.282 10.5204 27.2973 10.9948 27.2973 15C27.2973 19.0052 27.282 19.4796 27.2098 21.0613C27.1431 22.5238 26.8988 23.318 26.6934 23.8466C26.4213 24.5467 26.0962 25.0464 25.5713 25.5713C25.0464 26.0962 24.5467 26.4213 23.8466 26.6934C23.318 26.8988 22.5238 27.1431 21.0613 27.2098C19.4798 27.282 19.0055 27.2973 15 27.2973C10.9945 27.2973 10.5202 27.282 8.93871 27.2098C7.47623 27.1431 6.68199 26.8988 6.15343 26.6934C5.45327 26.4213 4.95359 26.0962 4.42866 25.5713C3.90379 25.0464 3.57869 24.5467 3.30664 23.8466C3.10122 23.318 2.85685 22.5238 2.79011 21.0613C2.71794 19.4796 2.7027 19.0052 2.7027 15C2.7027 10.9948 2.71794 10.5204 2.79011 8.93871C2.85685 7.47623 3.10122 6.68199 3.30664 6.15343C3.57869 5.45333 3.90379 4.95359 4.42866 4.42872C4.95359 3.90385 5.45327 3.57875 6.15343 3.30664C6.68199 3.10128 7.47623 2.85691 8.93871 2.79017C10.5204 2.718 10.9948 2.70276 15 2.70276Z" fill="white"/>
<path id="Vector_2" d="M15 19.9999C12.2386 19.9999 10 17.7614 10 15C10 12.2385 12.2386 9.99994 15 9.99994C17.7614 9.99994 20 12.2385 20 15C20 17.7614 17.7614 19.9999 15 19.9999ZM15 7.29724C10.7459 7.29724 7.2973 10.7458 7.2973 15C7.2973 19.254 10.7459 22.7026 15 22.7026C19.2541 22.7026 22.7027 19.254 22.7027 15C22.7027 10.7458 19.2541 7.29724 15 7.29724Z" fill="white"/>
<path id="Vector_3" d="M24.8071 6.99297C24.8071 7.98709 24.0012 8.79294 23.007 8.79294C22.013 8.79294 21.2071 7.98709 21.2071 6.99297C21.2071 5.99884 22.013 5.19299 23.007 5.19299C24.0012 5.19299 24.8071 5.99884 24.8071 6.99297Z" fill="white"/>
</g>
</svg>
